<svg xmlns="http://www.w3.org/2000/svg" width="117" height="117" viewBox="0 0 117 117">
  <g id="login" transform="translate(-0.001)">
    <g id="Group_38" data-name="Group 38" transform="translate(0)">
      <g id="Group_37" data-name="Group 37">
        <path id="Path_4" data-name="Path 4" d="M30.05,107.86H13.87a4.643,4.643,0,0,1-3.656-1.738,4.776,4.776,0,0,1-.968-4,50.5,50.5,0,0,1,48.09-39.986c.387.014.775.024,1.165.024s.785-.01,1.175-.024a50.057,50.057,0,0,1,16.507,3.18A4.57,4.57,0,1,0,79.4,56.755q-1.135-.426-2.284-.8a31.078,31.078,0,1,0-37.2.015A59.433,59.433,0,0,0,.3,100.255,13.885,13.885,0,0,0,13.87,117H30.05a4.57,4.57,0,1,0,0-9.141Zm6.513-76.781A21.938,21.938,0,1,1,59.568,52.989c-.356-.006-.712-.012-1.068-.012s-.715.005-1.072.012A21.965,21.965,0,0,1,36.563,31.078Z" transform="translate(0)" fill="#2598c4"/>
        <path id="Path_5" data-name="Path 5" d="M226.138,320.223A12.315,12.315,0,0,0,214.9,313H200.617a12.1,12.1,0,0,0-11.432,7.725c-.24.625-.534,1.412-.84,2.329H158.421a4.571,4.571,0,0,0-3.279,1.387l-7.851,8.087a4.57,4.57,0,0,0,.019,6.387l8,8.138a4.57,4.57,0,0,0,3.26,1.367h14.854a4.57,4.57,0,0,0,0-9.141H160.484l-3.526-3.587,3.4-3.5h31.419a4.57,4.57,0,0,0,4.439-3.483,37.771,37.771,0,0,1,1.5-4.707,3,3,0,0,1,2.912-1.865h14.262a3.118,3.118,0,0,1,2.9,1.813,29.515,29.515,0,0,1,2.7,11.651,30.387,30.387,0,0,1-2.683,11.859,3.12,3.12,0,0,1-2.87,1.871H200.51a3.253,3.253,0,0,1-2.947-2.024,30.382,30.382,0,0,1-1.416-4.524,4.57,4.57,0,1,0-8.889,2.127,39.334,39.334,0,0,0,1.856,5.882,12.329,12.329,0,0,0,11.386,7.68h14.454a12.254,12.254,0,0,0,11.238-7.358,39.562,39.562,0,0,0,3.444-15.533A38.694,38.694,0,0,0,226.138,320.223Z" transform="translate(-112.636 -241.475)" fill="#2598c4"/>
        <circle id="Ellipse_3" data-name="Ellipse 3" cx="4.57" cy="4.57" r="4.57" transform="translate(93.92 89.578)" fill="#2598c4"/>
      </g>
    </g>
  </g>
</svg>
