<svg xmlns="http://www.w3.org/2000/svg" width="120.485" height="117.258" viewBox="0 0 120.485 117.258">
  <g id="man-in-office-desk-with-computer" transform="translate(0 -0.76)">
    <g id="Path_12" data-name="Path 12" transform="translate(0 0)" fill="none">
      <path d="M44.29,48.173c-.378.023-1.6,1.078-1.6,1.078C43.346,49.536,44.67,48.15,44.29,48.173Zm.165-.216-.1.059.1-.038C44.454,47.97,44.456,47.966,44.456,47.957ZM89.881.76A12.321,12.321,0,1,1,77.561,13.081,12.321,12.321,0,0,1,89.881.76ZM15.919,53.584h3.3V52h-3.3a2.391,2.391,0,0,1-1.786-.488.7.7,0,0,1-.1-.547l.04-9.582H12.484v9.244a2.264,2.264,0,0,0,.363,1.81A3.6,3.6,0,0,0,15.919,53.584ZM120.274,76.1l-.448-3.632c-1.769-14.19-1.84-14.731-1.156-39.737a1.589,1.589,0,0,0-3.176-.087c-.687,25.24-.613,25.8,1.182,40.21l.45,3.639c.46,3.486.055,5.9-1.131,6.83-1.381,1.065-3.8.119-3.963.051C100.36,79.782,85.82,87.2,85.205,87.507a1.582,1.582,0,0,0,.73,2.989,1.518,1.518,0,0,0,.728-.178,51.681,51.681,0,0,1,13.952-4.447v24.707H94.023a2.429,2.429,0,1,0,0,4.859h18.726a2.429,2.429,0,1,0,0-4.859h-6.074V85.6a19.016,19.016,0,0,1,4.288.751c.17.068,4.105,1.685,6.961-.509C120.111,84.166,120.907,80.879,120.274,76.1Zm-7.545-7.2c-.274-10.437-3.694-20.445-3.963-30.837-.4-15.136-23.591-15.48-23.778-.715a124.063,124.063,0,0,1-26.769,1.888c-8.192-.384-8.217,12.306-.083,12.686A135.084,135.084,0,0,0,86.357,49.93a158.076,158.076,0,0,1,2.455,16.7C69.5,73.377,58.79,89.725,56.057,110.5c-.019.142-.023.295-.036.443v-46H68.2V54.072H24.516a3.706,3.706,0,0,0,.045-.5c0-.119.011-.25.019-.4.055-.919.216-1.233,1.116-1.407a4.261,4.261,0,0,1,.8-.051v.764H38.222a5.566,5.566,0,0,0,1,.112,1.368,1.368,0,0,0,1.167-.45,1.069,1.069,0,0,0,.129-.656,1.007,1.007,0,0,1,.108-.6,1.183,1.183,0,0,1,.728-.365,3.252,3.252,0,0,0-.4,1.5h13.28c0-2.555-2.975-4.625-6.639-4.625a8.852,8.852,0,0,0-3.138.573c.219,2.187-1.84,1.975-2.635,1.814-.093.117-.174.24-.255.363a.56.56,0,0,0-.106-.032,1.562,1.562,0,0,0-1.135.524,1.267,1.267,0,0,0-.2.844.879.879,0,0,1-.051.42.945.945,0,0,1-.732.267V50.346H26.5v.97a4.7,4.7,0,0,0-.876.07c-1.139.219-1.368.743-1.43,1.761-.008.153-.013.289-.019.407a2.618,2.618,0,0,1-.049.516H0V64.943H6.63v52.741H56.019V112.4c.8,8.126,14.674,7.383,15.9-1.918C74.028,94.414,83.4,83.682,99.162,80.13,105.713,81.128,112.95,77.4,112.73,68.9ZM17.916,18.272l2,28.467-5.272.369-2-28.465Z" stroke="none"/>
      <path d="M 89.8812255859375 9.759994506835938 C 88.05020141601562 9.759994506835938 86.56055450439453 11.2496337890625 86.56055450439453 13.08065795898438 C 86.56055450439453 14.91168212890625 88.05020141601562 16.40132904052734 89.8812255859375 16.40132904052734 C 91.71224975585938 16.40132904052734 93.20188903808594 14.91168212890625 93.20188903808594 13.08065795898438 C 93.20188903808594 11.2496337890625 91.71224975585938 9.759994506835938 89.8812255859375 9.759994506835938 M 96.48698425292969 35.48544311523438 C 94.01284027099609 35.48544311523438 93.99724578857422 36.72030639648438 93.9879150390625 37.45811462402344 L 93.94349670410156 40.9713134765625 L 95.22589111328125 48.39901733398438 L 95.76491546630859 51.44921112060547 C 96.60189056396484 56.13242340087891 97.46739196777344 60.97506713867188 97.79341125488281 66.053466796875 L 98.12541198730469 71.22525024414062 L 99.57174682617188 71.03294372558594 L 101.2493133544922 71.28828430175781 C 102.2892913818359 71.28828430175781 103.0751495361328 70.95951843261719 103.3926239013672 70.63371276855469 C 103.6978607177734 70.32044982910156 103.7460556030273 69.64273071289062 103.7328186035156 69.13194274902344 C 103.6139373779297 64.59844970703125 102.7757720947266 59.9618034362793 101.8883895874023 55.05290222167969 C 100.921630859375 49.70490264892578 99.92195892333984 44.1748046875 99.76950836181641 38.29515838623047 C 99.72062683105469 36.43077850341797 98.61624908447266 35.48544311523438 96.48698425292969 35.48544311523438 M 24.51615142822266 63.07175445556641 L 15.63029479980469 63.23223876953125 L 15.63029479980469 64.94329833984375 L 15.63029479980469 108.684326171875 L 47.02114868164062 108.684326171875 L 47.02114868164062 64.94541931152344 L 47.02114868164062 63.07175445556641 L 24.51615142822266 63.07175445556641 M 56.01903533935547 111.3288497924805 L 56.01903533935547 111.9592132568359 L 62.85895156860352 111.6216125488281 L 56.01903533935547 111.3288497924805 M 89.8812255859375 0.7599945068359375 C 96.68550872802734 0.7599945068359375 102.2018890380859 6.276397705078125 102.2018890380859 13.08065795898438 C 102.2018890380859 19.88492584228516 96.68550872802734 25.40132904052734 89.8812255859375 25.40132904052734 C 83.07696533203125 25.40132904052734 77.56055450439453 19.88492584228516 77.56055450439453 13.08065795898438 C 77.56055450439453 6.276397705078125 83.07696533203125 0.7599945068359375 89.8812255859375 0.7599945068359375 Z M 17.91555786132812 18.27244567871094 L 19.91207885742188 46.73918151855469 L 14.63967132568359 47.10835266113281 L 12.64317321777344 18.64373016357422 L 17.91555786132812 18.27244567871094 Z M 96.48698425292969 26.48544311523438 C 102.4596481323242 26.48544311523438 108.5645217895508 30.35731506347656 108.7664108276367 38.05934906005859 C 109.0358657836914 48.45140075683594 112.4560317993164 58.45942306518555 112.7297210693359 68.89601898193359 C 112.9271011352539 76.50614929199219 107.1579513549805 80.28828430175781 101.2493133544922 80.28828430175781 C 100.5522079467773 80.28828430175781 99.85292053222656 80.23561096191406 99.16150665283203 80.13037109375 C 83.40158081054688 83.68209075927734 74.02793884277344 94.41361236572266 71.91474914550781 110.4854202270508 C 71.257080078125 115.4909820556641 66.93682861328125 118.017822265625 62.96103286743164 118.017822265625 C 59.54888916015625 118.017822265625 56.39041900634766 116.1564865112305 56.01903533935547 112.4034271240234 L 56.01903533935547 117.684326171875 L 6.630294799804688 117.684326171875 L 6.630294799804688 64.94329833984375 L 7.62939453125e-06 64.94329833984375 L 7.62939453125e-06 54.06963348388672 L 24.12574768066406 54.06963348388672 C 24.15757751464844 53.94656372070312 24.16605377197266 53.78532409667969 24.17455291748047 53.55406951904297 C 24.18091583251953 53.43525695800781 24.18517303466797 53.29946899414062 24.19364929199219 53.14670562744141 C 24.25517272949219 52.12828063964844 24.48431396484375 51.60423278808594 25.62367248535156 51.38568115234375 C 25.83280181884766 51.34468078613281 26.13703155517578 51.31557464599609 26.46553802490234 51.31557464599609 C 26.47696685791016 51.31557464599609 26.48844909667969 51.31561279296875 26.49993896484375 51.31568145751953 L 26.49993896484375 50.3460693359375 L 39.34677124023438 50.3460693359375 L 39.34677124023438 52.17497253417969 C 39.66291046142578 52.15799713134766 39.938720703125 52.09644317626953 40.07874298095703 51.90763854980469 C 40.13179016113281 51.83761596679688 40.13179016113281 51.65940093994141 40.12967681884766 51.48754119873047 C 40.12967681884766 51.20747375488281 40.12543487548828 50.88920593261719 40.32701110839844 50.64311218261719 C 40.58645629882812 50.32846069335938 41.07020568847656 50.11810302734375 41.42208862304688 50.11810302734375 C 41.43562316894531 50.11810302734375 41.448974609375 50.11841583251953 41.46210479736328 50.11904144287109 C 41.50241088867188 50.12116241455078 41.53212738037109 50.14237213134766 41.56817626953125 50.15087890625 C 41.64881896972656 50.02780151367188 41.72943878173828 49.90475463867188 41.82279205322266 49.78806304931641 C 42.04409027099609 49.83290863037109 42.36302947998047 49.88169860839844 42.70349884033203 49.88169860839844 C 43.58712768554688 49.88169860839844 44.61568450927734 49.55306243896484 44.45793914794922 47.97402191162109 C 45.39572143554688 47.61970520019531 46.4501953125 47.40116119384766 47.59591674804688 47.40116119384766 C 51.26007843017578 47.40116119384766 54.23469543457031 49.471923828125 54.23469543457031 52.02644348144531 L 40.95500946044922 52.02644348144531 C 40.95500946044922 51.49601745605469 41.10777282714844 50.99530029296875 41.35176849365234 50.52427673339844 C 41.12050628662109 50.54549407958984 40.79376983642578 50.68342590332031 40.62403106689453 50.88920593261719 C 40.51370239257812 51.02713775634766 40.51581573486328 51.26052093505859 40.51581573486328 51.48754119873047 C 40.51793670654297 51.72304534912109 40.51793670654297 51.967041015625 40.38641357421875 52.14313507080078 C 40.13603210449219 52.48049163818359 39.71170043945312 52.59292602539062 39.219482421875 52.59292602539062 C 38.90334320068359 52.59292602539062 38.56386566162109 52.54413604736328 38.22226715087891 52.48049163818359 L 26.49781799316406 52.48049163818359 L 26.49781799316406 51.71668243408203 C 26.46329498291016 51.71617889404297 26.42881774902344 51.71591186523438 26.39445495605469 51.71591186523438 C 26.14157867431641 51.71591186523438 25.89566040039062 51.73023986816406 25.69581604003906 51.76759338378906 C 24.79619598388672 51.94158935546875 24.63496398925781 52.25559234619141 24.57979583740234 53.17427825927734 C 24.57131958007812 53.32277679443359 24.56493377685547 53.45433044433594 24.56069946289062 53.57315826416016 C 24.55222320556641 53.77259063720703 24.54160308837891 53.93385314941406 24.51615142822266 54.07175445556641 L 68.20179748535156 54.07175445556641 L 68.20179748535156 64.94541931152344 L 56.02114868164062 64.94541931152344 L 56.02114868164062 110.9437103271484 C 56.03388977050781 110.7951812744141 56.03812408447266 110.6424255371094 56.05722045898438 110.5002822875977 C 58.78995895385742 89.72466278076172 69.49600982666016 73.37701416015625 88.8118896484375 66.63004302978516 C 88.45121765136719 61.01180267333984 87.31610107421875 55.48480224609375 86.35710144042969 49.93020629882812 C 78.63468933105469 51.19709777832031 70.86820983886719 52.03146362304688 63.04982376098633 52.03146362304688 C 61.41460037231445 52.03146362304688 59.77622604370117 51.99493408203125 58.1364860534668 51.91823577880859 C 50.12305450439453 51.54410552978516 50.02818298339844 39.22409820556641 57.85842895507812 39.22409820556641 C 57.976806640625 39.22409820556641 58.09722518920898 39.22692108154297 58.21922302246094 39.23263549804688 C 59.84267807006836 39.3089599609375 61.46003341674805 39.34559631347656 63.07418060302734 39.34559631347656 C 70.43396759033203 39.34559631347656 77.70820617675781 38.583251953125 84.98863220214844 37.34432983398438 C 85.080322265625 30.09256744384766 90.72206878662109 26.48544311523438 96.48698425292969 26.48544311523438 Z M 117.0362091064453 31.09721374511719 C 117.0659713745117 31.09722137451172 117.0959167480469 31.09819793701172 117.125862121582 31.10018157958984 C 118.0085067749023 31.12564086914062 118.6916732788086 31.85337829589844 118.6704864501953 32.72966003417969 C 117.9872665405273 57.73592376708984 118.0572967529297 58.27694702148438 119.8267974853516 72.46682739257812 L 120.2744598388672 76.09915924072266 C 120.9067230224609 80.87932586669922 120.1111068725586 84.16583251953125 117.9236297607422 85.84620666503906 C 116.7788009643555 86.72566986083984 115.4605178833008 86.99275207519531 114.2807769775391 86.99275207519531 C 112.5176315307617 86.99275207519531 111.0640563964844 86.39610290527344 110.9623641967773 86.35542297363281 C 109.5790328979492 85.93106079101562 108.1362686157227 85.70407104492188 106.6744384765625 85.60432434082031 L 106.6744384765625 110.5787582397461 L 112.7488403320312 110.5787582397461 C 114.0897216796875 110.5787582397461 115.1802978515625 111.6650924682617 115.1802978515625 113.0081176757812 C 115.1802978515625 114.3469009399414 114.0918655395508 115.4374465942383 112.7488403320312 115.4374465942383 L 94.02276611328125 115.4374465942383 C 92.67974853515625 115.4374465942383 91.59133911132812 114.3469009399414 91.59133911132812 113.0081176757812 C 91.59133911132812 111.6650924682617 92.67974853515625 110.5787582397461 94.02276611328125 110.5787582397461 L 100.6148681640625 110.5787582397461 L 100.6148681640625 85.87165832519531 C 93.24836730957031 86.97494506835938 86.75810241699219 90.27418518066406 86.66262817382812 90.31873321533203 C 86.42500305175781 90.446044921875 86.17889404296875 90.49697113037109 85.93489074707031 90.49697113037109 C 85.36203002929688 90.49697113037109 84.80615234375 90.19142150878906 84.52395629882812 89.64616394042969 C 84.12084197998047 88.86749267578125 84.42636108398438 87.90635681152344 85.20503234863281 87.50749206542969 C 85.700927734375 87.25954437255859 95.24098205566406 82.39353179931641 105.0354156494141 82.39353179931641 C 107.3933486938477 82.39353179931641 109.7670822143555 82.67576599121094 112.0317001342773 83.37232971191406 C 112.1383361816406 83.41606903076172 113.1796875 83.82455444335938 114.276481628418 83.82455444335938 C 114.881706237793 83.82455444335938 115.5038757324219 83.70013427734375 115.9950332641602 83.32139587402344 C 117.1810531616211 82.39208984375 117.586296081543 79.97761535644531 117.125862121582 76.49166107177734 L 116.6760787963867 72.85296630859375 C 114.8811264038086 58.44456481933594 114.8068618774414 57.88230514526367 115.4942932128906 32.64266204833984 C 115.5208969116211 31.79795074462891 116.2394485473633 31.09717559814453 117.0362091064453 31.09721374511719 Z M 12.48403167724609 41.37980651855469 L 14.07105255126953 41.37980651855469 L 14.03074645996094 50.96134948730469 C 14.03074645996094 50.96134948730469 13.95224761962891 51.27114105224609 14.13257598876953 51.50875854492188 C 14.37022399902344 51.81851959228516 15.01946258544922 51.99673461914062 15.91905212402344 51.99673461914062 L 19.22041320800781 51.99673461914062 L 19.22041320800781 53.58375549316406 L 15.91905212402344 53.58375549316406 C 14.44024658203125 53.58375549316406 13.40272521972656 53.19549560546875 12.84683990478516 52.43380737304688 C 12.32491302490234 51.72092437744141 12.41400909423828 50.94651794433594 12.48403167724609 50.62401580810547 L 12.48403167724609 41.37980651855469 Z M 44.45579528808594 47.95703887939453 C 44.45579528808594 47.96551513671875 44.45367431640625 47.96975708007812 44.45367431640625 47.97825622558594 C 44.42398071289062 47.99099731445312 44.39215087890625 48.00370788574219 44.35820007324219 48.01644897460938 L 44.45579528808594 47.95703887939453 Z M 44.29948425292969 48.17315673828125 C 44.33927917480469 48.17315673828125 44.35749053955078 48.19085693359375 44.3575439453125 48.22185516357422 C 44.35749053955078 48.19085693359375 44.33927917480469 48.17315673828125 44.29948425292969 48.17315673828125 Z M 44.3575439453125 48.22185516357422 C 44.35794067382812 48.43682098388672 43.48521423339844 49.28974914550781 42.88602447509766 49.28974914550781 C 43.48521423339844 49.28974914550781 44.35794067382812 48.43682098388672 44.3575439453125 48.22185516357422 Z" stroke="none" fill="#2598c4"/>
    </g>
  </g>
</svg>
