<svg xmlns="http://www.w3.org/2000/svg" width="1921" height="675.5" viewBox="0 0 1921 675.5">
  <path id="Path_3" data-name="Path 3" d="M-2918,1186.5a156.977,156.977,0,0,1-57.911-11.065,170.937,170.937,0,0,1-49.912-30.725,195.242,195.242,0,0,1-38.679-46.68,216.381,216.381,0,0,1-24.211-58.93,163.725,163.725,0,0,1-39.67,17.54,156.9,156.9,0,0,1-43.618,6.182,156.986,156.986,0,0,1-35.772-4.13,160.346,160.346,0,0,1-28.728-9.708L-3236,511h1920c.106,145.914.211,145.95.5,515.562a148.455,148.455,0,0,1-47,7.63,148.468,148.468,0,0,1-46.894-7.595,157.567,157.567,0,0,1-41.784-21.359,191.184,191.184,0,0,1-19.727,55.228,179.163,179.163,0,0,1-15.4,23.641,168.268,168.268,0,0,1-18.549,20.377,156.716,156.716,0,0,1-21.3,16.652,146.315,146.315,0,0,1-23.643,12.467,137.13,137.13,0,0,1-52.71,10.526,137.125,137.125,0,0,1-53.175-10.722,146.4,146.4,0,0,1-23.815-12.689,157.164,157.164,0,0,1-21.414-16.943,168.828,168.828,0,0,1-18.6-20.72,179.564,179.564,0,0,1-15.365-24.025,191.662,191.662,0,0,1-19.383-56.058,117.654,117.654,0,0,1-46.252,9.463,117.691,117.691,0,0,1-26.064-2.924,120.178,120.178,0,0,1-24.344-8.4c-11.9,27.07-30.052,49.923-52.492,66.088a136.145,136.145,0,0,1-36.3,18.73,128.142,128.142,0,0,1-40.8,6.664,128.225,128.225,0,0,1-32.6-4.214,132.5,132.5,0,0,1-30-12.019,143.668,143.668,0,0,1-26.581-18.884,157.538,157.538,0,0,1-22.342-24.814,108.9,108.9,0,0,1-32.98,22.133,98.663,98.663,0,0,1-38.988,8.024c-22.7,0-44.535-7.761-63.157-22.445-13.905,30.756-34.852,56.687-60.575,74.987a157.072,157.072,0,0,1-41.6,21.22,148.03,148.03,0,0,1-46.669,7.545,148.041,148.041,0,0,1-48.408-8.133,157.939,157.939,0,0,1-42.854-22.813,177.547,177.547,0,0,1-35.219-35.114,196.957,196.957,0,0,1-25.51-45.034c-.688.009-1.365.013-2.008.013a148.094,148.094,0,0,1-36.108-4.468,152.454,152.454,0,0,1-33.391-12.771c-10.174,23.385-25.765,43.136-45.084,57.117a116.967,116.967,0,0,1-31.26,16.2,110.032,110.032,0,0,1-35.157,5.765,110.131,110.131,0,0,1-26.928-3.344,113.311,113.311,0,0,1-24.892-9.555c-15.137,31.128-37.245,57.281-63.933,75.633a165.81,165.81,0,0,1-43.11,21.315A156.859,156.859,0,0,1-2918,1186.5Z" transform="translate(-1315.5 1186.5) rotate(180)" fill="#eee"/>
</svg>
