<svg xmlns="http://www.w3.org/2000/svg" width="119.459" height="119.594" viewBox="0 0 119.459 119.594">
  <g id="payment" transform="translate(1 0.986)">
    <g id="Group_40" data-name="Group 40" transform="translate(65.43 9.186)">
      <g id="Group_39" data-name="Group 39">
        <path id="Path_13" data-name="Path 13" d="M292.371,53.769a2.293,2.293,0,1,1,0-4.586,3.681,3.681,0,0,1,2.48,1.2,2.293,2.293,0,1,0,3.189-3.3,8.861,8.861,0,0,0-3.376-2.111V42.3a2.293,2.293,0,0,0-4.586,0v2.687a6.878,6.878,0,0,0,2.293,13.363,2.293,2.293,0,0,1,0,4.586,4.15,4.15,0,0,1-2.977-1.735,2.293,2.293,0,0,0-3.51,2.951,9.506,9.506,0,0,0,4.195,2.986v2.676a2.293,2.293,0,0,0,4.586,0V67.132a6.878,6.878,0,0,0-2.292-13.363Z" transform="translate(-285.345 -40.012)" fill="#2598c4" stroke="#2598c4" stroke-width="2"/>
      </g>
    </g>
    <g id="Group_42" data-name="Group 42" transform="translate(47.234 0.014)">
      <g id="Group_41" data-name="Group 41">
        <path id="Path_14" data-name="Path 14" d="M231.214.014a25.222,25.222,0,1,0,25.222,25.222A25.25,25.25,0,0,0,231.214.014Zm0,45.858A20.636,20.636,0,1,1,251.85,25.236,20.659,20.659,0,0,1,231.214,45.872Z" transform="translate(-205.992 -0.014)" fill="#2598c4" stroke="#2598c4" stroke-width="2"/>
      </g>
    </g>
    <g id="Group_44" data-name="Group 44" transform="translate(0 51.076)">
      <g id="Group_43" data-name="Group 43">
        <path id="Path_15" data-name="Path 15" d="M108.728,222.707a8.981,8.981,0,0,0-8.364,4.95c-2.861,5.72-5.57,8.662-10.785,11.36a9.215,9.215,0,0,0-8.169-5.012H58.435a9.14,9.14,0,0,1-4.287-1.487,22.526,22.526,0,0,0-11.764-3.1c-10.507,0-20.714,10.31-24.952,17.532l-.547-.547a2.294,2.294,0,0,0-3.243,0L.672,259.376a2.293,2.293,0,0,0,0,3.245l25.8,25.745a2.293,2.293,0,0,0,3.237,0l12.971-12.914a2.294,2.294,0,0,0,0-3.246l-2.1-2.1c1.57-2.221,5.573-4,8.408-4h0l30.951.009h.014a20.45,20.45,0,0,0,11.1-3.207c8.364-5.378,20.128-14.132,25.7-27.991A8.96,8.96,0,0,0,108.728,222.707ZM28.1,283.5,5.538,261l9.726-9.727c5.422,5.422,11.146,11.147,22.556,22.556Zm84.409-50.3c-5.08,12.643-16.085,20.8-23.923,25.843a15.874,15.874,0,0,1-8.621,2.478h-.011L49,261.52h-.006a16.342,16.342,0,0,0-11.668,5.326L20.809,250.329c1.819-3.739,11.327-16.323,21.575-16.323a18.086,18.086,0,0,1,9.626,2.57,13.216,13.216,0,0,0,6.424,2.016H81.41a4.586,4.586,0,0,1,0,9.172H58.435a2.293,2.293,0,1,0,0,4.586H81.409a9.183,9.183,0,0,0,9.16-8.7c6.8-3.293,10.409-6.966,13.9-13.94a4.391,4.391,0,0,1,8.04,3.5Z" transform="translate(0 -222.701)" fill="#2598c4" stroke="#2598c4" stroke-width="2"/>
      </g>
    </g>
    <g id="Group_46" data-name="Group 46" transform="translate(21.077 95.185)">
      <g id="Group_45" data-name="Group 45">
        <path id="Path_16" data-name="Path 16" d="M99.076,418.976l-3.244-3.242a2.293,2.293,0,0,0-3.242,3.244l3.244,3.242a2.293,2.293,0,1,0,3.242-3.244Z" transform="translate(-91.918 -415.063)" fill="#2598c4" stroke="#2598c4" stroke-width="2"/>
      </g>
    </g>
  </g>
</svg>
