<svg xmlns="http://www.w3.org/2000/svg" width="111.471" height="106.604" viewBox="0 0 111.471 106.604">
  <g id="star_2_" data-name="star (2)" transform="translate(0 -1.047)" fill="none">
    <path d="M61.118,4.393,73.69,29.869a6,6,0,0,0,4.52,3.283l28.114,4.085a6,6,0,0,1,3.327,10.238L89.309,67.3a6,6,0,0,0-1.725,5.313l4.8,28a6,6,0,0,1-8.71,6.329L58.53,93.728a6.01,6.01,0,0,0-5.588,0L27.8,106.947a6,6,0,0,1-8.71-6.329l4.8-28A6,6,0,0,0,22.163,67.3L1.82,47.475A6,6,0,0,1,5.147,37.237l28.114-4.085a6,6,0,0,0,4.52-3.283L50.354,4.393A6,6,0,0,1,61.118,4.393Z" stroke="none"/>
    <path d="M 55.73601913452148 16.08441162109375 L 46.74943542480469 34.29354095458984 C 44.41775512695312 39.01886749267578 39.91220855712891 42.29161834716797 34.6995849609375 43.04776763916016 L 14.60067749023438 45.96844482421875 L 29.14545440673828 60.14579391479492 C 32.91796112060547 63.82524108886719 34.63695526123047 69.12149047851562 33.74468231201172 74.30793762207031 L 30.31159210205078 94.32794189453125 L 48.2918815612793 84.87556457519531 C 50.57838439941406 83.67449188232422 53.15253448486328 83.03964233398438 55.73600769042969 83.03964233398438 C 58.31943130493164 83.03964233398438 60.89353179931641 83.67449188232422 63.18300628662109 84.87709045410156 L 81.16041564941406 94.32794952392578 L 77.72825622558594 74.31336975097656 C 76.83500671386719 69.12164306640625 78.55398559570312 63.82536697387695 82.32870483398438 60.14369201660156 L 96.87132263183594 45.96844100952148 L 76.77488708496094 43.04814147949219 C 71.55980682373047 42.29161834716797 67.05426025390625 39.01886749267578 64.72283172607422 34.2940673828125 L 55.73601913452148 16.08441162109375 M 55.73513793945312 1.046745300292969 C 57.87580108642578 1.046745300292969 60.01675796508789 2.162277221679688 61.11775588989258 4.393341064453125 L 73.69023132324219 29.86849212646484 C 74.56452941894531 31.64031982421875 76.25495910644531 32.8680419921875 78.21047973632812 33.15171813964844 L 106.3247604370117 37.23714447021484 C 111.2495803833008 37.95331573486328 113.2144088745117 44.0035400390625 109.6521606445312 47.47511672973633 L 89.30876159667969 67.30461883544922 C 87.89503479003906 68.68348693847656 87.24861145019531 70.67153930664062 87.58345794677734 72.61776733398438 L 92.38503265380859 100.6181182861328 C 93.05105590820312 104.4983749389648 89.96658325195312 107.6494903564453 86.46826171875 107.6494903564453 C 85.54537963867188 107.6494903564453 84.59401702880859 107.4303359985352 83.67472839355469 106.947395324707 L 58.52975845336914 93.72849273681641 C 57.65547180175781 93.26925659179688 56.69573211669922 93.03963470458984 55.73600006103516 93.03963470458984 C 54.77626419067383 93.03963470458984 53.81653213500977 93.26925659179688 52.94225692749023 93.72849273681641 L 27.79725646972656 106.947395324707 C 26.87796783447266 107.4308166503906 25.92570495605469 107.6504058837891 25.00282287597656 107.6504058837891 C 21.50450134277344 107.6504058837891 18.42093658447266 104.4983749389648 19.08695983886719 100.6181182861328 L 23.88855743408203 72.61776733398438 C 24.22338104248047 70.67153930664062 23.57698059082031 68.68348693847656 22.16323089599609 67.30461883544922 L 1.819831848144531 47.47511672973633 C -1.742393493652344 44.001220703125 0.2224044799804688 37.95098876953125 5.147232055664062 37.23714447021484 L 33.26153564453125 33.15171813964844 C 35.21705627441406 32.8680419921875 36.90748596191406 31.64031982421875 37.78178405761719 29.86849212646484 L 50.35428237915039 4.393341064453125 C 51.45410919189453 2.162277221679688 53.59447479248047 1.046745300292969 55.73513793945312 1.046745300292969 Z" stroke="none" fill="#2598c4"/>
  </g>
</svg>
